<svg preserveAspectRatio="none" overflow="visible" style="display: block;" width="48" height="48" viewBox="0 0 48 48" fill="none" xmlns="http://www.w3.org/2000/svg">
<g id="Avatar / Cow Cat / Playful Duotone" clip-path="url(#clip0_0_93)">
<path id="Vector" d="M24 48C37.2548 48 48 37.2548 48 24C48 10.7452 37.2548 0 24 0C10.7452 0 0 10.7452 0 24C0 37.2548 10.7452 48 24 48Z" fill="#E8E3FF"/>
<path id="Vector_2" d="M13 17L15 8L23 15M35 17L33 8L25 15" fill="#25221F"/>
<path id="Vector_3" d="M24 41C32.2843 41 39 34.2843 39 26C39 17.7157 32.2843 11 24 11C15.7157 11 9 17.7157 9 26C9 34.2843 15.7157 41 24 41Z" fill="#25221F"/>
<path id="Vector_4" d="M24 13C19 16 17 21 17 28C17 35 20 39 24 41C28 39 31 35 31 28C31 21 29 16 24 13Z" fill="#FFFDF7"/>
<path id="Vector_5" d="M18.5 29.5C20.433 29.5 22 27.4853 22 25C22 22.5147 20.433 20.5 18.5 20.5C16.567 20.5 15 22.5147 15 25C15 27.4853 16.567 29.5 18.5 29.5Z" fill="#78C826"/>
<path id="Vector_6" d="M29.5 29.5C31.433 29.5 33 27.4853 33 25C33 22.5147 31.433 20.5 29.5 20.5C27.567 20.5 26 22.5147 26 25C26 27.4853 27.567 29.5 29.5 29.5Z" fill="#78C826"/>
<path id="Vector_7" d="M19.5 25.2C20.1627 25.2 20.7 24.6627 20.7 24C20.7 23.3373 20.1627 22.8 19.5 22.8C18.8373 22.8 18.3 23.3373 18.3 24C18.3 24.6627 18.8373 25.2 19.5 25.2Z" fill="#20130E"/>
<path id="Vector_8" d="M30.5 25.2C31.1627 25.2 31.7 24.6627 31.7 24C31.7 23.3373 31.1627 22.8 30.5 22.8C29.8373 22.8 29.3 23.3373 29.3 24C29.3 24.6627 29.8373 25.2 30.5 25.2Z" fill="#20130E"/>
<path id="Vector_9" d="M21 31C23 33 25 33 27 31" stroke="#4B2518" stroke-width="1.5" stroke-linecap="round"/>
<path id="Vector_10" d="M22 29L24 27L26 29L24 30.5L22 29Z" fill="#FF8B7D"/>
</g>
<defs>
<clipPath id="clip0_0_93">
<rect width="48" height="48" fill="white"/>
</clipPath>
</defs>
</svg>
