<svg width="180" height="170" viewBox="0 0 180 170" fill="none" xmlns="http://www.w3.org/2000/svg">
  <ellipse cx="90" cy="153" rx="63" ry="10" fill="#E9E3F7"/>
  <path d="M35 118C35 87.1 59.6 62 90 62C120.4 62 145 87.1 145 118V143H35V118Z" fill="#EEEAFD"/>
  <path d="M53 65C47.3 51.2 56.8 35 72 35H108C123.2 35 132.7 51.2 127 65L119 84H61L53 65Z" fill="#8178D9"/>
  <path d="M64 39C69.3 27.7 78.5 21 90 21C101.5 21 110.7 27.7 116 39" stroke="#A79FF1" stroke-width="11" stroke-linecap="round"/>
  <rect x="49" y="69" width="82" height="55" rx="27.5" fill="#9B91EC"/>
  <circle cx="73" cy="92" r="15" fill="white"/>
  <circle cx="107" cy="92" r="15" fill="white"/>
  <circle cx="76" cy="94" r="7" fill="#33225A"/>
  <circle cx="104" cy="94" r="7" fill="#33225A"/>
  <circle cx="78" cy="91" r="2.5" fill="white"/>
  <circle cx="106" cy="91" r="2.5" fill="white"/>
  <path d="M77 110C84.4 117.2 95.6 117.2 103 110" stroke="#4B2416" stroke-width="4" stroke-linecap="round"/>
  <circle cx="60" cy="108" r="6" fill="#F7A8B8"/>
  <circle cx="120" cy="108" r="6" fill="#F7A8B8"/>
  <path d="M52 132L38 141" stroke="#8178D9" stroke-width="12" stroke-linecap="round"/>
  <path d="M128 132L142 141" stroke="#8178D9" stroke-width="12" stroke-linecap="round"/>
  <path d="M43 48L47.5 57L57 59L50 66L51.7 76L43 71.3L34.3 76L36 66L29 59L38.5 57L43 48Z" fill="#FFD45C" stroke="#FFB800" stroke-width="3" stroke-linejoin="round"/>
  <path d="M139 31L143 39L152 40.2L145.5 46.5L147 55.5L139 51.2L131 55.5L132.5 46.5L126 40.2L135 39L139 31Z" fill="#FFD45C" stroke="#FFB800" stroke-width="3" stroke-linejoin="round"/>
  <circle cx="151" cy="82" r="7" fill="#60C9F1"/>
  <circle cx="25" cy="96" r="5" fill="#76BD25"/>
</svg>
